<svg xmlns="http://www.w3.org/2000/svg" width="34" height="33" viewBox="0 0 34 33"><defs><mask id="xxhnb" width="2" height="2" x="-1" y="-1"><path fill="#fff" d="M1 0h32v31H1z"/><path d="M16.806 30.764c-8.478 0-15.35-6.882-15.35-15.371 0-8.49 6.872-15.372 15.35-15.372 8.477 0 15.35 6.882 15.35 15.372s-6.873 15.371-15.35 15.371zm.163-18.023c0-3.473-3.775-3.194-3.775-3.194l-5.598.002.007 12.323 5.223-.035s4.494.346 4.534-3.689c0-2.35-1.895-2.914-1.895-2.914s1.504-.545 1.504-2.493zm8.336-2.524h-4.792v1.375h4.792zm-2.451 2.108c-4.587 0-4.361 4.813-4.361 4.813s-.256 4.74 4.45 4.74c3.625 0 4.151-2.993 4.151-2.993h-2.33s-.377 1.055-1.76 1.04c-2.27 0-2.196-2.2-2.196-2.2l6.391-.03s.662-5.37-4.345-5.37zm-.015 1.968c1.97 0 2.015 1.867 2.015 1.867l-4 .03s.15-1.897 1.985-1.897zm-10.116 5.41l-2.606-.009-.01-3.283s1.585.01 2.651.01c-.004 0 2.01-.141 2.01 1.526 0 1.997-2.045 1.757-2.045 1.757zm.02-5.305l-2.631.015v-2.725l2.273.011s2.133-.283 2.133 1.314c0 1.596-1.775 1.385-1.775 1.385z"/></mask><filter id="xxhna" width="54" height="54" x="-10" y="-11" filterUnits="userSpaceOnUse"><feOffset dy="1" in="SourceGraphic" result="FeOffset1248Out"/><feGaussianBlur in="FeOffset1248Out" result="FeGaussianBlur1249Out" stdDeviation="0.4 0.4"/></filter></defs><g><g><g filter="url(#xxhna)"><path fill="none" d="M16.806 30.764c-8.478 0-15.35-6.882-15.35-15.371 0-8.49 6.872-15.372 15.35-15.372 8.477 0 15.35 6.882 15.35 15.372s-6.873 15.371-15.35 15.371zm.163-18.023c0-3.473-3.775-3.194-3.775-3.194l-5.598.002.007 12.323 5.223-.035s4.494.346 4.534-3.689c0-2.35-1.895-2.914-1.895-2.914s1.504-.545 1.504-2.493zm8.336-2.524h-4.792v1.375h4.792zm-2.451 2.108c-4.587 0-4.361 4.813-4.361 4.813s-.256 4.74 4.45 4.74c3.625 0 4.151-2.993 4.151-2.993h-2.33s-.377 1.055-1.76 1.04c-2.27 0-2.196-2.2-2.196-2.2l6.391-.03s.662-5.37-4.345-5.37zm-.015 1.968c1.97 0 2.015 1.867 2.015 1.867l-4 .03s.15-1.897 1.985-1.897zm-10.116 5.41l-2.606-.009-.01-3.283s1.585.01 2.651.01c-.004 0 2.01-.141 2.01 1.526 0 1.997-2.045 1.757-2.045 1.757zm.02-5.305l-2.631.015v-2.725l2.273.011s2.133-.283 2.133 1.314c0 1.596-1.775 1.385-1.775 1.385z" mask="url(&quot;#xxhnb&quot;)"/><path fill-opacity=".25" d="M16.806 30.764c-8.478 0-15.35-6.882-15.35-15.371 0-8.49 6.872-15.372 15.35-15.372 8.477 0 15.35 6.882 15.35 15.372s-6.873 15.371-15.35 15.371zm.163-18.023c0-3.473-3.775-3.194-3.775-3.194l-5.598.002.007 12.323 5.223-.035s4.494.346 4.534-3.689c0-2.35-1.895-2.914-1.895-2.914s1.504-.545 1.504-2.493zm8.336-2.524h-4.792v1.375h4.792zm-2.451 2.108c-4.587 0-4.361 4.813-4.361 4.813s-.256 4.74 4.45 4.74c3.625 0 4.151-2.993 4.151-2.993h-2.33s-.377 1.055-1.76 1.04c-2.27 0-2.196-2.2-2.196-2.2l6.391-.03s.662-5.37-4.345-5.37zm-.015 1.968c1.97 0 2.015 1.867 2.015 1.867l-4 .03s.15-1.897 1.985-1.897zm-10.116 5.41l-2.606-.009-.01-3.283s1.585.01 2.651.01c-.004 0 2.01-.141 2.01 1.526 0 1.997-2.045 1.757-2.045 1.757zm.02-5.305l-2.631.015v-2.725l2.273.011s2.133-.283 2.133 1.314c0 1.596-1.775 1.385-1.775 1.385z"/></g><path fill="#fff" d="M16.806 30.764c-8.478 0-15.35-6.882-15.35-15.371 0-8.49 6.872-15.372 15.35-15.372 8.477 0 15.35 6.882 15.35 15.372s-6.873 15.371-15.35 15.371zm.163-18.023c0-3.473-3.775-3.194-3.775-3.194l-5.598.002.007 12.323 5.223-.035s4.494.346 4.534-3.689c0-2.35-1.895-2.914-1.895-2.914s1.504-.545 1.504-2.493zm8.336-2.524h-4.792v1.375h4.792zm-2.451 2.108c-4.587 0-4.361 4.813-4.361 4.813s-.256 4.74 4.45 4.74c3.625 0 4.151-2.993 4.151-2.993h-2.33s-.377 1.055-1.76 1.04c-2.27 0-2.196-2.2-2.196-2.2l6.391-.03s.662-5.37-4.345-5.37zm-.015 1.968c1.97 0 2.015 1.867 2.015 1.867l-4 .03s.15-1.897 1.985-1.897zm-10.116 5.41l-2.606-.009-.01-3.283s1.585.01 2.651.01c-.004 0 2.01-.141 2.01 1.526 0 1.997-2.045 1.757-2.045 1.757zm.02-5.305l-2.631.015v-2.725l2.273.011s2.133-.283 2.133 1.314c0 1.596-1.775 1.385-1.775 1.385z"/></g></g></svg>