<svg xmlns="http://www.w3.org/2000/svg" width="33" height="33" viewBox="0 0 33 33"><defs><mask id="fkdeb" width="2" height="2" x="-1" y="-1"><path fill="#fff" d="M1 0h31v31H1z"/><path d="M16.546 27.716c-6.6 0-11.95-5.369-11.95-11.992 0-6.624 5.35-11.993 11.95-11.993s11.952 5.37 11.952 11.993-5.351 11.992-11.952 11.992zm9.785-10.734c-3.301-.537-6.279-.044-6.279-.044s1.293 3.422 1.915 7.052c0 0 3.72-2.06 4.364-7.008zm-6.247 7.974s-.851-5.008-1.963-7.587c-4.928 1.378-7.62 6.16-7.627 6.16 4.755 3.615 9.59 1.427 9.59 1.427zM9.041 22.138c3.733-5.642 8.4-6.494 8.4-6.494l-.799-1.763s-3.212 1.236-9.94 1.448c0 .019-.334 3.707 2.34 6.81zm-2.136-8.497c5.263-.137 8.92-1.328 8.92-1.328s-1.27-2.465-3.72-5.42c-4.485 2.318-5.2 6.748-5.2 6.748zm7.144-7.484s2.402 2.492 3.722 5.468c0 0 2.982-1.115 5.217-3.388-4.143-3.611-8.94-2.08-8.94-2.08zm10.133 3.301s-2.052 2.37-5.63 3.75c.298.646.58 1.317.852 2.002 3.063-.587 6.982-.032 6.984-.017-.182-3.554-2.206-5.735-2.206-5.735zm2.206 5.735zm-25.094.444c0 8.49 6.872 15.372 15.35 15.372 8.477 0 15.35-6.883 15.35-15.372 0-8.49-6.873-15.372-15.35-15.372-8.478 0-15.35 6.882-15.35 15.372z"/></mask><filter id="fkdea" width="53" height="54" x="-10" y="-11" filterUnits="userSpaceOnUse"><feOffset dy="1" in="SourceGraphic" result="FeOffset1228Out"/><feGaussianBlur in="FeOffset1228Out" result="FeGaussianBlur1229Out" stdDeviation="0.4 0.4"/></filter></defs><g><g><g filter="url(#fkdea)"><path fill="none" d="M16.546 27.716c-6.6 0-11.95-5.369-11.95-11.992 0-6.624 5.35-11.993 11.95-11.993s11.952 5.37 11.952 11.993-5.351 11.992-11.952 11.992zm9.785-10.734c-3.301-.537-6.279-.044-6.279-.044s1.293 3.422 1.915 7.052c0 0 3.72-2.06 4.364-7.008zm-6.247 7.974s-.851-5.008-1.963-7.587c-4.928 1.378-7.62 6.16-7.627 6.16 4.755 3.615 9.59 1.427 9.59 1.427zM9.041 22.138c3.733-5.642 8.4-6.494 8.4-6.494l-.799-1.763s-3.212 1.236-9.94 1.448c0 .019-.334 3.707 2.34 6.81zm-2.136-8.497c5.263-.137 8.92-1.328 8.92-1.328s-1.27-2.465-3.72-5.42c-4.485 2.318-5.2 6.748-5.2 6.748zm7.144-7.484s2.402 2.492 3.722 5.468c0 0 2.982-1.115 5.217-3.388-4.143-3.611-8.94-2.08-8.94-2.08zm10.133 3.301s-2.052 2.37-5.63 3.75c.298.646.58 1.317.852 2.002 3.063-.587 6.982-.032 6.984-.017-.182-3.554-2.206-5.735-2.206-5.735zm2.206 5.735zm-25.094.444c0 8.49 6.872 15.372 15.35 15.372 8.477 0 15.35-6.883 15.35-15.372 0-8.49-6.873-15.372-15.35-15.372-8.478 0-15.35 6.882-15.35 15.372z" mask="url(&quot;#fkdeb&quot;)"/><path fill-opacity=".25" d="M16.546 27.716c-6.6 0-11.95-5.369-11.95-11.992 0-6.624 5.35-11.993 11.95-11.993s11.952 5.37 11.952 11.993-5.351 11.992-11.952 11.992zm9.785-10.734c-3.301-.537-6.279-.044-6.279-.044s1.293 3.422 1.915 7.052c0 0 3.72-2.06 4.364-7.008zm-6.247 7.974s-.851-5.008-1.963-7.587c-4.928 1.378-7.62 6.16-7.627 6.16 4.755 3.615 9.59 1.427 9.59 1.427zM9.041 22.138c3.733-5.642 8.4-6.494 8.4-6.494l-.799-1.763s-3.212 1.236-9.94 1.448c0 .019-.334 3.707 2.34 6.81zm-2.136-8.497c5.263-.137 8.92-1.328 8.92-1.328s-1.27-2.465-3.72-5.42c-4.485 2.318-5.2 6.748-5.2 6.748zm7.144-7.484s2.402 2.492 3.722 5.468c0 0 2.982-1.115 5.217-3.388-4.143-3.611-8.94-2.08-8.94-2.08zm10.133 3.301s-2.052 2.37-5.63 3.75c.298.646.58 1.317.852 2.002 3.063-.587 6.982-.032 6.984-.017-.182-3.554-2.206-5.735-2.206-5.735zm2.206 5.735zm-25.094.444c0 8.49 6.872 15.372 15.35 15.372 8.477 0 15.35-6.883 15.35-15.372 0-8.49-6.873-15.372-15.35-15.372-8.478 0-15.35 6.882-15.35 15.372z"/></g><path fill="#fff" d="M16.546 27.716c-6.6 0-11.95-5.369-11.95-11.992 0-6.624 5.35-11.993 11.95-11.993s11.952 5.37 11.952 11.993-5.351 11.992-11.952 11.992zm9.785-10.734c-3.301-.537-6.279-.044-6.279-.044s1.293 3.422 1.915 7.052c0 0 3.72-2.06 4.364-7.008zm-6.247 7.974s-.851-5.008-1.963-7.587c-4.928 1.378-7.62 6.16-7.627 6.16 4.755 3.615 9.59 1.427 9.59 1.427zM9.041 22.138c3.733-5.642 8.4-6.494 8.4-6.494l-.799-1.763s-3.212 1.236-9.94 1.448c0 .019-.334 3.707 2.34 6.81zm-2.136-8.497c5.263-.137 8.92-1.328 8.92-1.328s-1.27-2.465-3.72-5.42c-4.485 2.318-5.2 6.748-5.2 6.748zm7.144-7.484s2.402 2.492 3.722 5.468c0 0 2.982-1.115 5.217-3.388-4.143-3.611-8.94-2.08-8.94-2.08zm10.133 3.301s-2.052 2.37-5.63 3.75c.298.646.58 1.317.852 2.002 3.063-.587 6.982-.032 6.984-.017-.182-3.554-2.206-5.735-2.206-5.735zm2.206 5.735zm-25.094.444c0 8.49 6.872 15.372 15.35 15.372 8.477 0 15.35-6.883 15.35-15.372 0-8.49-6.873-15.372-15.35-15.372-8.478 0-15.35 6.882-15.35 15.372z"/></g></g></svg>