<svg xmlns="http://www.w3.org/2000/svg" width="33" height="33" viewBox="0 0 33 33"><defs><mask id="c606b" width="2" height="2" x="-1" y="-1"><path fill="#fff" d="M1 0h31v31H1z"/><path d="M20.251 9.795l-1.806.004c-1.165 0-1.011.811-1.011 2.806l2.806-.03-.461 2.81h-2.353l.008 9.835h-3.512v-9.835H11.81V12.59s2.12.011 2.12 0c.115-1.502-.675-5.62 2.792-5.62h3.534zM1 15.393c0 8.49 6.872 15.371 15.35 15.371s15.35-6.882 15.35-15.37C31.7 6.902 24.828.02 16.35.02S1 6.903 1 15.393z"/></mask><filter id="c606a" width="53" height="54" x="-10" y="-11" filterUnits="userSpaceOnUse"><feOffset dy="1" in="SourceGraphic" result="FeOffset1103Out"/><feGaussianBlur in="FeOffset1103Out" result="FeGaussianBlur1104Out" stdDeviation="0.4 0.4"/></filter></defs><g><g><g filter="url(#c606a)"><path fill="none" d="M20.251 9.795l-1.806.004c-1.165 0-1.011.811-1.011 2.806l2.806-.03-.461 2.81h-2.353l.008 9.835h-3.512v-9.835H11.81V12.59s2.12.011 2.12 0c.115-1.502-.675-5.62 2.792-5.62h3.534zM1 15.393c0 8.49 6.872 15.371 15.35 15.371s15.35-6.882 15.35-15.37C31.7 6.902 24.828.02 16.35.02S1 6.903 1 15.393z" mask="url(&quot;#c606b&quot;)"/><path fill-opacity=".25" d="M20.251 9.795l-1.806.004c-1.165 0-1.011.811-1.011 2.806l2.806-.03-.461 2.81h-2.353l.008 9.835h-3.512v-9.835H11.81V12.59s2.12.011 2.12 0c.115-1.502-.675-5.62 2.792-5.62h3.534zM1 15.393c0 8.49 6.872 15.371 15.35 15.371s15.35-6.882 15.35-15.37C31.7 6.902 24.828.02 16.35.02S1 6.903 1 15.393z"/></g><path fill="#fff" d="M20.251 9.795l-1.806.004c-1.165 0-1.011.811-1.011 2.806l2.806-.03-.461 2.81h-2.353l.008 9.835h-3.512v-9.835H11.81V12.59s2.12.011 2.12 0c.115-1.502-.675-5.62 2.792-5.62h3.534zM1 15.393c0 8.49 6.872 15.371 15.35 15.371s15.35-6.882 15.35-15.37C31.7 6.902 24.828.02 16.35.02S1 6.903 1 15.393z"/></g></g></svg>