<svg xmlns="http://www.w3.org/2000/svg" width="47" height="47" viewBox="0 0 47 47"><defs><mask id="xjsrb" width="2" height="2" x="-1" y="-1"><path fill="#fff" d="M1 0h45v45H1z"/><path d="M29.219 14.307l-2.649.005c-1.707 0-1.481 1.188-1.481 4.108l4.113-.045-.676 4.113h-3.448l.01 14.396h-5.146V22.488h-3.098v-4.09s3.107.016 3.107 0c.17-2.199-.99-8.228 4.093-8.228h5.18zM.999 22.5C1 34.926 11.074 45 23.5 45 35.927 45 46 34.926 46 22.5S35.927 0 23.5 0C11.074 0 1 10.074 1 22.5z"/></mask><filter id="xjsra" width="67" height="68" x="-10" y="-11" filterUnits="userSpaceOnUse"><feOffset dy="1" in="SourceGraphic" result="FeOffset1201Out"/><feGaussianBlur in="FeOffset1201Out" result="FeGaussianBlur1202Out" stdDeviation="0.4 0.4"/></filter></defs><g><g><g filter="url(#xjsra)"><path fill="none" d="M29.219 14.307l-2.649.005c-1.707 0-1.481 1.188-1.481 4.108l4.113-.045-.676 4.113h-3.448l.01 14.396h-5.146V22.488h-3.098v-4.09s3.107.016 3.107 0c.17-2.199-.99-8.228 4.093-8.228h5.18zM.999 22.5C1 34.926 11.074 45 23.5 45 35.927 45 46 34.926 46 22.5S35.927 0 23.5 0C11.074 0 1 10.074 1 22.5z" mask="url(&quot;#xjsrb&quot;)"/><path fill-opacity=".25" d="M29.219 14.307l-2.649.005c-1.707 0-1.481 1.188-1.481 4.108l4.113-.045-.676 4.113h-3.448l.01 14.396h-5.146V22.488h-3.098v-4.09s3.107.016 3.107 0c.17-2.199-.99-8.228 4.093-8.228h5.18zM.999 22.5C1 34.926 11.074 45 23.5 45 35.927 45 46 34.926 46 22.5S35.927 0 23.5 0C11.074 0 1 10.074 1 22.5z"/></g><path fill="#fff" d="M29.219 14.307l-2.649.005c-1.707 0-1.481 1.188-1.481 4.108l4.113-.045-.676 4.113h-3.448l.01 14.396h-5.146V22.488h-3.098v-4.09s3.107.016 3.107 0c.17-2.199-.99-8.228 4.093-8.228h5.18zM.999 22.5C1 34.926 11.074 45 23.5 45 35.927 45 46 34.926 46 22.5S35.927 0 23.5 0C11.074 0 1 10.074 1 22.5z"/></g></g></svg>