<svg xmlns="http://www.w3.org/2000/svg" width="47" height="47" viewBox="0 0 47 47"><defs><mask id="54jhb" width="2" height="2" x="-1" y="-1"><path fill="#fff" d="M1-1h45v46H1z"/><path d="M19.24 25.577c-1.33.041-6.5.232-6.475 4.067 0 .338.124 4.017 5.93 4.118 5.4-.202 4.928-3.504 5.012-3.64-.04-2.495-3.32-4.399-4.467-4.545zm-.802-5.368c4.478 0 3.333-5.02 3.333-5.02s-1.082-4.86-4.241-4.518c-4.046.045-2.924 5.1-2.924 5.1s.946 4.278 3.832 4.438zm-.26.857c-.642.05-.805.039-1.075.056-4.102-.017-5.536-3.381-5.536-5.322-.034-2.245 1.181-3.606 2.093-4.517 1.046-.895 2.621-1.812 6.064-1.812h6.959l-2.172 1.21-2.1-.002c.26.17 2.311 1.48 2.444 4.519 0 3.985-3.791 4.428-3.791 6.488-.005 1.13 1.243 1.586 2.096 2.362 1.944 1.404 2.629 2.988 2.629 4.702 0 3.186-2.92 6.368-8.703 6.424.022.034-7.184.136-7.42-4.843 0 .034-.327-2.233 2.767-4.124 1.91-1.266 4.439-1.372 6.414-1.575-.692-.81-1.002-1.412-1.002-2.273.017-.472.113-.788.332-1.293zM31.47 9.306h2.116v3.172h3.172v2.115h-3.172v3.173H31.47v-3.173h-3.173v-2.115h3.173zM.975 22.45c0 12.426 10.074 22.5 22.5 22.5s22.5-10.074 22.5-22.5c0-12.427-10.074-22.5-22.5-22.5S.975 10.023.975 22.45z"/></mask><filter id="54jha" width="67" height="69" x="-10" y="-12" filterUnits="userSpaceOnUse"><feOffset dy="1" in="SourceGraphic" result="FeOffset1141Out"/><feGaussianBlur in="FeOffset1141Out" result="FeGaussianBlur1142Out" stdDeviation="0.4 0.4"/></filter></defs><g><g><g filter="url(#54jha)"><path fill="none" d="M19.24 25.577c-1.33.041-6.5.232-6.475 4.067 0 .338.124 4.017 5.93 4.118 5.4-.202 4.928-3.504 5.012-3.64-.04-2.495-3.32-4.399-4.467-4.545zm-.802-5.368c4.478 0 3.333-5.02 3.333-5.02s-1.082-4.86-4.241-4.518c-4.046.045-2.924 5.1-2.924 5.1s.946 4.278 3.832 4.438zm-.26.857c-.642.05-.805.039-1.075.056-4.102-.017-5.536-3.381-5.536-5.322-.034-2.245 1.181-3.606 2.093-4.517 1.046-.895 2.621-1.812 6.064-1.812h6.959l-2.172 1.21-2.1-.002c.26.17 2.311 1.48 2.444 4.519 0 3.985-3.791 4.428-3.791 6.488-.005 1.13 1.243 1.586 2.096 2.362 1.944 1.404 2.629 2.988 2.629 4.702 0 3.186-2.92 6.368-8.703 6.424.022.034-7.184.136-7.42-4.843 0 .034-.327-2.233 2.767-4.124 1.91-1.266 4.439-1.372 6.414-1.575-.692-.81-1.002-1.412-1.002-2.273.017-.472.113-.788.332-1.293zM31.47 9.306h2.116v3.172h3.172v2.115h-3.172v3.173H31.47v-3.173h-3.173v-2.115h3.173zM.975 22.45c0 12.426 10.074 22.5 22.5 22.5s22.5-10.074 22.5-22.5c0-12.427-10.074-22.5-22.5-22.5S.975 10.023.975 22.45z" mask="url(&quot;#54jhb&quot;)"/><path fill-opacity=".25" d="M19.24 25.577c-1.33.041-6.5.232-6.475 4.067 0 .338.124 4.017 5.93 4.118 5.4-.202 4.928-3.504 5.012-3.64-.04-2.495-3.32-4.399-4.467-4.545zm-.802-5.368c4.478 0 3.333-5.02 3.333-5.02s-1.082-4.86-4.241-4.518c-4.046.045-2.924 5.1-2.924 5.1s.946 4.278 3.832 4.438zm-.26.857c-.642.05-.805.039-1.075.056-4.102-.017-5.536-3.381-5.536-5.322-.034-2.245 1.181-3.606 2.093-4.517 1.046-.895 2.621-1.812 6.064-1.812h6.959l-2.172 1.21-2.1-.002c.26.17 2.311 1.48 2.444 4.519 0 3.985-3.791 4.428-3.791 6.488-.005 1.13 1.243 1.586 2.096 2.362 1.944 1.404 2.629 2.988 2.629 4.702 0 3.186-2.92 6.368-8.703 6.424.022.034-7.184.136-7.42-4.843 0 .034-.327-2.233 2.767-4.124 1.91-1.266 4.439-1.372 6.414-1.575-.692-.81-1.002-1.412-1.002-2.273.017-.472.113-.788.332-1.293zM31.47 9.306h2.116v3.172h3.172v2.115h-3.172v3.173H31.47v-3.173h-3.173v-2.115h3.173zM.975 22.45c0 12.426 10.074 22.5 22.5 22.5s22.5-10.074 22.5-22.5c0-12.427-10.074-22.5-22.5-22.5S.975 10.023.975 22.45z"/></g><path fill="#fff" d="M19.24 25.577c-1.33.041-6.5.232-6.475 4.067 0 .338.124 4.017 5.93 4.118 5.4-.202 4.928-3.504 5.012-3.64-.04-2.495-3.32-4.399-4.467-4.545zm-.802-5.368c4.478 0 3.333-5.02 3.333-5.02s-1.082-4.86-4.241-4.518c-4.046.045-2.924 5.1-2.924 5.1s.946 4.278 3.832 4.438zm-.26.857c-.642.05-.805.039-1.075.056-4.102-.017-5.536-3.381-5.536-5.322-.034-2.245 1.181-3.606 2.093-4.517 1.046-.895 2.621-1.812 6.064-1.812h6.959l-2.172 1.21-2.1-.002c.26.17 2.311 1.48 2.444 4.519 0 3.985-3.791 4.428-3.791 6.488-.005 1.13 1.243 1.586 2.096 2.362 1.944 1.404 2.629 2.988 2.629 4.702 0 3.186-2.92 6.368-8.703 6.424.022.034-7.184.136-7.42-4.843 0 .034-.327-2.233 2.767-4.124 1.91-1.266 4.439-1.372 6.414-1.575-.692-.81-1.002-1.412-1.002-2.273.017-.472.113-.788.332-1.293zM31.47 9.306h2.116v3.172h3.172v2.115h-3.172v3.173H31.47v-3.173h-3.173v-2.115h3.173zM.975 22.45c0 12.426 10.074 22.5 22.5 22.5s22.5-10.074 22.5-22.5c0-12.427-10.074-22.5-22.5-22.5S.975 10.023.975 22.45z"/></g></g></svg>