<svg xmlns="http://www.w3.org/2000/svg" width="47" height="47" viewBox="0 0 47 47"><defs><mask id="558pb" width="2" height="2" x="-1" y="-1"><path fill="#fff" d="M1 0h45v45H1z"/><path d="M21.588 11.958l3.399.001v6.025L30 17.982v4.011h-5.008s-.004 4.677-.004 6.267c0 3.053 2.13 3.663 6.006 1.877v3.995c-2.12.697-4.757 1.082-6.875.773-1.71-.25-4.12-1.275-4.12-3.916V21.97h-2.988l.003-3.965c3.454-1.697 4.388-3.27 4.574-6.047zM1 22.5C1 34.926 11.073 45 23.5 45S46 34.927 46 22.5C46 10.073 35.925 0 23.5 0S1 10.073 1 22.5z"/></mask><filter id="558pa" width="67" height="68" x="-10" y="-11" filterUnits="userSpaceOnUse"><feOffset dy="1" in="SourceGraphic" result="FeOffset1121Out"/><feGaussianBlur in="FeOffset1121Out" result="FeGaussianBlur1122Out" stdDeviation="0.4 0.4"/></filter></defs><g><g><g filter="url(#558pa)"><path fill="none" d="M21.588 11.958l3.399.001v6.025L30 17.982v4.011h-5.008s-.004 4.677-.004 6.267c0 3.053 2.13 3.663 6.006 1.877v3.995c-2.12.697-4.757 1.082-6.875.773-1.71-.25-4.12-1.275-4.12-3.916V21.97h-2.988l.003-3.965c3.454-1.697 4.388-3.27 4.574-6.047zM1 22.5C1 34.926 11.073 45 23.5 45S46 34.927 46 22.5C46 10.073 35.925 0 23.5 0S1 10.073 1 22.5z" mask="url(&quot;#558pb&quot;)"/><path fill-opacity=".25" d="M21.588 11.958l3.399.001v6.025L30 17.982v4.011h-5.008s-.004 4.677-.004 6.267c0 3.053 2.13 3.663 6.006 1.877v3.995c-2.12.697-4.757 1.082-6.875.773-1.71-.25-4.12-1.275-4.12-3.916V21.97h-2.988l.003-3.965c3.454-1.697 4.388-3.27 4.574-6.047zM1 22.5C1 34.926 11.073 45 23.5 45S46 34.927 46 22.5C46 10.073 35.925 0 23.5 0S1 10.073 1 22.5z"/></g><path fill="#fff" d="M21.588 11.958l3.399.001v6.025L30 17.982v4.011h-5.008s-.004 4.677-.004 6.267c0 3.053 2.13 3.663 6.006 1.877v3.995c-2.12.697-4.757 1.082-6.875.773-1.71-.25-4.12-1.275-4.12-3.916V21.97h-2.988l.003-3.965c3.454-1.697 4.388-3.27 4.574-6.047zM1 22.5C1 34.926 11.073 45 23.5 45S46 34.927 46 22.5C46 10.073 35.925 0 23.5 0S1 10.073 1 22.5z"/></g></g></svg>