<svg xmlns="http://www.w3.org/2000/svg" width="33" height="33" viewBox="0 0 33 33"><defs><mask id="nzmyb" width="2" height="2" x="-1" y="-1"><path fill="#fff" d="M1 0h31v31H1z"/><path d="M19.478 8.604c.16 0 .337.326.337.326s.314-.664.674-.699c.244.142.356.52.168.653.063 0 .809-.536 1.181-.268.035.419-1.174 1.106-1.174 1.106s2.848 0 4.034 4.133c.035 0 1.558.221 2.582-.57-.082.908-1.826 1.665-1.826 1.665s1.023.21 1.733.081c-.256 1.351-2.524 1.223-2.524 1.223s-1.755 6.02-7.243 6.893c-6.767.978-10.616-1.548-11.07-4.168.006.018 4.064 3.607 7.43.034-.004 0-.543-.03-.907-.279-.034-.035-.441-.314-.441-.769.005-.279.616-1.012.616-1.012s-1.315.058-2.152-.839c-.07-.07-.532-.439.11-.854.39-.244 1.007-.566 1.007-.566s-.581.21-1.046-.012c-.008-.008-.952-.762-1.13-1.49-.174-.57.623-.543.623-.543l.541-.016s-1.895-1.386-1.406-2.48c0-.012.412-.821 6.639 3.388-.006-.006 1.337-4.413 3.244-4.937zM6.35 18.979zm-5.164-3.604c0 8.49 6.873 15.372 15.35 15.372 8.478 0 15.35-6.882 15.35-15.372S25.015.004 16.537.004c-8.477 0-15.35 6.882-15.35 15.371z"/></mask><filter id="nzmya" width="53" height="54" x="-10" y="-11" filterUnits="userSpaceOnUse"><feOffset dy="1" in="SourceGraphic" result="FeOffset1083Out"/><feGaussianBlur in="FeOffset1083Out" result="FeGaussianBlur1084Out" stdDeviation="0.4 0.4"/></filter></defs><g><g><g filter="url(#nzmya)"><path fill="none" d="M19.478 8.604c.16 0 .337.326.337.326s.314-.664.674-.699c.244.142.356.52.168.653.063 0 .809-.536 1.181-.268.035.419-1.174 1.106-1.174 1.106s2.848 0 4.034 4.133c.035 0 1.558.221 2.582-.57-.082.908-1.826 1.665-1.826 1.665s1.023.21 1.733.081c-.256 1.351-2.524 1.223-2.524 1.223s-1.755 6.02-7.243 6.893c-6.767.978-10.616-1.548-11.07-4.168.006.018 4.064 3.607 7.43.034-.004 0-.543-.03-.907-.279-.034-.035-.441-.314-.441-.769.005-.279.616-1.012.616-1.012s-1.315.058-2.152-.839c-.07-.07-.532-.439.11-.854.39-.244 1.007-.566 1.007-.566s-.581.21-1.046-.012c-.008-.008-.952-.762-1.13-1.49-.174-.57.623-.543.623-.543l.541-.016s-1.895-1.386-1.406-2.48c0-.012.412-.821 6.639 3.388-.006-.006 1.337-4.413 3.244-4.937zM6.35 18.979zm-5.164-3.604c0 8.49 6.873 15.372 15.35 15.372 8.478 0 15.35-6.882 15.35-15.372S25.015.004 16.537.004c-8.477 0-15.35 6.882-15.35 15.371z" mask="url(&quot;#nzmyb&quot;)"/><path fill-opacity=".25" d="M19.478 8.604c.16 0 .337.326.337.326s.314-.664.674-.699c.244.142.356.52.168.653.063 0 .809-.536 1.181-.268.035.419-1.174 1.106-1.174 1.106s2.848 0 4.034 4.133c.035 0 1.558.221 2.582-.57-.082.908-1.826 1.665-1.826 1.665s1.023.21 1.733.081c-.256 1.351-2.524 1.223-2.524 1.223s-1.755 6.02-7.243 6.893c-6.767.978-10.616-1.548-11.07-4.168.006.018 4.064 3.607 7.43.034-.004 0-.543-.03-.907-.279-.034-.035-.441-.314-.441-.769.005-.279.616-1.012.616-1.012s-1.315.058-2.152-.839c-.07-.07-.532-.439.11-.854.39-.244 1.007-.566 1.007-.566s-.581.21-1.046-.012c-.008-.008-.952-.762-1.13-1.49-.174-.57.623-.543.623-.543l.541-.016s-1.895-1.386-1.406-2.48c0-.012.412-.821 6.639 3.388-.006-.006 1.337-4.413 3.244-4.937zM6.35 18.979zm-5.164-3.604c0 8.49 6.873 15.372 15.35 15.372 8.478 0 15.35-6.882 15.35-15.372S25.015.004 16.537.004c-8.477 0-15.35 6.882-15.35 15.371z"/></g><path fill="#fff" d="M19.478 8.604c.16 0 .337.326.337.326s.314-.664.674-.699c.244.142.356.52.168.653.063 0 .809-.536 1.181-.268.035.419-1.174 1.106-1.174 1.106s2.848 0 4.034 4.133c.035 0 1.558.221 2.582-.57-.082.908-1.826 1.665-1.826 1.665s1.023.21 1.733.081c-.256 1.351-2.524 1.223-2.524 1.223s-1.755 6.02-7.243 6.893c-6.767.978-10.616-1.548-11.07-4.168.006.018 4.064 3.607 7.43.034-.004 0-.543-.03-.907-.279-.034-.035-.441-.314-.441-.769.005-.279.616-1.012.616-1.012s-1.315.058-2.152-.839c-.07-.07-.532-.439.11-.854.39-.244 1.007-.566 1.007-.566s-.581.21-1.046-.012c-.008-.008-.952-.762-1.13-1.49-.174-.57.623-.543.623-.543l.541-.016s-1.895-1.386-1.406-2.48c0-.012.412-.821 6.639 3.388-.006-.006 1.337-4.413 3.244-4.937zM6.35 18.979zm-5.164-3.604c0 8.49 6.873 15.372 15.35 15.372 8.478 0 15.35-6.882 15.35-15.372S25.015.004 16.537.004c-8.477 0-15.35 6.882-15.35 15.371z"/></g></g></svg>